<?xml version="1.0" standalone="no"?>
<!DOCTYPE svg PUBLIC "-//W3C//DTD SVG 20010904//EN"
 "http://www.w3.org/TR/2001/REC-SVG-20010904/DTD/svg10.dtd">
<svg version="1.0" xmlns="http://www.w3.org/2000/svg"
 width="600.000000pt" height="600.000000pt" viewBox="0 0 600.000000 600.000000"
 preserveAspectRatio="xMidYMid meet">
<metadata>
Created by potrace 1.11, written by Peter Selinger 2001-2013
</metadata>
<g transform="translate(0.000000,600.000000) scale(0.100000,-0.100000)"
fill="#000000" stroke="none">
<path d="M132 4825 c-94 -44 -137 -131 -129 -263 9 -164 92 -235 269 -235 132
1 212 53 244 159 17 56 12 187 -9 235 -21 48 -88 104 -138 117 -70 18 -184 12
-237 -13z"/>
<path d="M1054 4588 l1 -262 1308 0 1307 0 -2 -260 -3 -260 -777 0 c-544 0
-778 -3 -779 -10 -1 -6 -2 -122 -3 -259 -1 -212 1 -248 14 -252 8 -2 350 -4
760 -4 410 0 755 0 768 0 l22 -1 0 -260 c0 -143 -3 -260 -7 -261 -5 0 -118 -1
-253 -2 l-245 -2 0 -253 c-1 -140 3 -256 8 -259 5 -3 119 -5 253 -5 l244 -1 0
-261 0 -262 -772 1 c-425 1 -777 0 -783 -2 -6 -2 -10 -97 -10 -261 l1 -257
1127 -3 1127 -2 0 745 0 745 692 2 693 3 1 260 c0 143 -1 265 -3 270 -2 7
-240 10 -693 10 l-690 0 0 542 0 543 818 -1 817 0 3 270 2 271 -2473 0 -2474
0 1 -262z"/>
<path d="M1230 3796 c-112 -29 -168 -103 -175 -231 -9 -180 70 -272 243 -280
120 -5 213 35 255 110 22 39 33 138 24 205 -12 95 -54 153 -131 185 -49 21
-158 26 -216 11z"/>
<path d="M2264 2742 c-111 -37 -155 -107 -155 -248 0 -156 70 -237 221 -253
186 -20 294 65 305 238 4 66 -18 155 -48 194 -56 73 -210 106 -323 69z"/>
<path d="M1239 1705 c-65 -13 -85 -24 -123 -64 -42 -44 -65 -120 -60 -205 7
-159 88 -240 245 -245 163 -6 259 65 277 206 15 113 -17 219 -80 266 -61 45
-162 62 -259 42z"/>
</g>
</svg>
